<?xml version="1.0" encoding="utf-8"?>
<!-- Generator: Adobe Illustrator 19.2.1, SVG Export Plug-In . SVG Version: 6.00 Build 0)  -->
<svg version="1.1" id="Layer_1" xmlns="http://www.w3.org/2000/svg" xmlns:xlink="http://www.w3.org/1999/xlink" x="0px" y="0px"
	 viewBox="0 0 200 60" style="enable-background:new 0 0 200 60;" xml:space="preserve">
<metadata><?xpacket begin="﻿" id="W5M0MpCehiHzreSzNTczkc9d"?>
<x:xmpmeta xmlns:x="adobe:ns:meta/" x:xmptk="Adobe XMP Core 5.6-c111 79.158366, 2015/09/25-01:12:00        ">
   <rdf:RDF xmlns:rdf="http://www.w3.org/1999/02/22-rdf-syntax-ns#">
      <rdf:Description rdf:about=""/>
   </rdf:RDF>
</x:xmpmeta>
                                                                                                    
                                                                                                    
                                                                                                    
                                                                                                    
                                                                                                    
                                                                                                    
                                                                                                    
                                                                                                    
                                                                                                    
                                                                                                    
                                                                                                    
                                                                                                    
                                                                                                    
                                                                                                    
                                                                                                    
                                                                                                    
                                                                                                    
                                                                                                    
                                                                                                    
                                                                                                    
                           
<?xpacket end="w"?></metadata>
<style type="text/css">
	.st0{fill-rule:evenodd;clip-rule:evenodd;fill:#FFFFFF;}
	.st1{fill-rule:evenodd;clip-rule:evenodd;fill:#114533;}
	.st2{fill-rule:evenodd;clip-rule:evenodd;fill:#E48E25;}
	.st3{fill:none;stroke:#FFFFFF;stroke-width:0.4558;stroke-linecap:round;stroke-linejoin:round;stroke-miterlimit:3.864;}
	.st4{fill:none;stroke:#FFFFFF;stroke-width:0.9652;stroke-linejoin:round;stroke-miterlimit:3.864;}
	.st5{fill:none;stroke:#FFFFFF;stroke-width:0.2975;stroke-linecap:round;stroke-linejoin:round;stroke-miterlimit:3.864;}
	.st6{fill:none;stroke:#FFFFFF;stroke-width:0.6999;stroke-linejoin:round;stroke-miterlimit:3.864;}
</style>
<g>
	<path class="st0" d="M17.6,41.6H32v9.1h136.7v-9.1h14.4l0-1.5c-1,0-1.8-1.4-1.8-2.4c0-1,0.8-2.4,1.8-2.4h12.6l0-2.8
		c-1,0-1.8-1.1-1.8-2.1c0-1,0.8-2.1,1.8-2.1l0-2.8h-12.6c-1,0-1.8-1.4-1.8-2.4c0-1,0.8-2.4,1.8-2.4l0-1h-14.4v-9.1H32v9.1H17.6l0,1
		c1,0,1.8,1.4,1.8,2.4c0,1-0.8,2.4-1.8,2.4H5v2.8c1,0,1.8,1.1,1.8,2.1c0,1-0.8,2.1-1.8,2.1v2.8h12.6c1,0,1.8,1.7,1.8,2.7
		c0,1-0.8,2.1-1.8,2.1L17.6,41.6z"/>
	<path class="st1" d="M168,45.9c0,1-0.8,1.8-1.8,1.8H34.8c-1,0-1.8-0.8-1.8-1.8l0-4.6c0-1-0.8-1.8-1.8-1.8H16.6
		c-1,0-1.8,0.8-1.8,1.8c0,1,0.8,1.8,1.8,1.8h11.9c0.5,0,0.9,0.4,0.9,0.9v8.2c0,4,3.3,7.3,7.3,7.3h127.7c4,0,7.3-3.3,7.3-7.3l0-8.2
		c0-0.5,0.4-0.9,0.9-0.9h11.9c1,0,1.8-0.8,1.8-1.8c0-1-0.8-1.8-1.8-1.8h-14.6c-1,0-1.8,0.8-1.8,1.8L168,45.9z"/>
	<path class="st1" d="M33,14.9c0-1,0.8-1.8,1.8-1.8h131.4c1,0,1.8,0.8,1.8,1.8l0,4.6c0,1,0.8,1.8,1.8,1.8h14.6c1,0,1.8-0.8,1.8-1.8
		c0-1-0.8-1.8-1.8-1.8h-11.9c-0.5,0-0.9-0.4-0.9-0.9V8.5c0-4-3.3-7.3-7.3-7.3H36.6c-4,0-7.3,3.3-7.3,7.3l0,8.2
		c0,0.5-0.4,0.9-0.9,0.9H16.6c-1,0-1.8,0.8-1.8,1.8c0,1,0.8,1.8,1.8,1.8h14.6c1,0,1.8-0.8,1.8-1.8L33,14.9z"/>
	<path class="st1" d="M3.8,24.9h27.4c1,0,1.8,0.8,1.8,1.8c0,1-0.8,1.8-1.8,1.8H3.8c-1,0-1.8-0.8-1.8-1.8C2,25.7,2.8,24.9,3.8,24.9"
		/>
	<path class="st1" d="M3.8,32.2h27.4c1,0,1.8,0.8,1.8,1.8s-0.8,1.8-1.8,1.8H3.8C2.8,35.9,2,35,2,34S2.8,32.2,3.8,32.2"/>
	<path class="st1" d="M169.8,24.9h27.4c1,0,1.8,0.8,1.8,1.8c0,1-0.8,1.8-1.8,1.8h-27.4c-1,0-1.8-0.8-1.8-1.8
		C168,25.7,168.8,24.9,169.8,24.9"/>
	<path class="st1" d="M169.8,32.2h27.4c1,0,1.8,0.8,1.8,1.8s-0.8,1.8-1.8,1.8h-27.4c-1,0-1.8-0.8-1.8-1.8S168.8,32.2,169.8,32.2"/>
	<path class="st2" d="M57.4,34.8c0-4.2-2.5-6.4-6.7-7c-0.4-0.1-0.8-0.1-1.1-0.2c-3-0.5-4.2-1.1-4.2-2.7c0-1.2,0.7-2.1,3.1-2.1
		c1.7,0,3.3,1.3,3.7,2.6c0.1,0.2,0.2,0.2,0.4,0.1l3.9-1.6c0.2-0.1,0.3-0.2,0.2-0.6c-0.9-2.8-3.6-4.9-8-4.9c-5.9,0-8.9,3-8.9,7.4
		c0,4.1,2.8,6.4,6.8,6.8c0.2,0,0.6,0.1,0.8,0.1c3.1,0.4,4,1.2,4,2.6c0,1.5-1.1,2.2-3.4,2.2c-2.1,0-3.6-1.5-4-2.7
		c-0.1-0.3-0.1-0.3-0.4-0.2l-4.1,1.7c-0.2,0.1-0.3,0.3-0.1,0.6c1.1,3.3,4,5.1,8.5,5.1C53.2,42.2,57.4,39.9,57.4,34.8"/>
	<path class="st2" d="M85.8,41.2c-0.2-8-0.4-13.7-0.9-22.4c0-0.1-0.1-0.2-0.1-0.3c-0.1,0-0.2,0-0.3,0.1c-3.1,3-8.7,8.9-10.1,10.5
		c-1.5-1.7-7.3-7.5-10.2-10.4c-0.1-0.1-0.2-0.1-0.3-0.1c-0.1,0-0.2,0.1-0.2,0.4c-0.3,6.7-0.6,15.3-0.7,22.4c0,0.3,0,0.2,0.3,0.2h5
		c0.3,0,0.4,0,0.4-0.5l0.2-9.5c0,0,3.9,3.9,5.2,5.2c0.1,0.1,0.2,0.2,0.2,0.2c0.1,0,0.2-0.1,0.3-0.2c1.3-1.3,5.1-5.2,5.1-5.2l0.2,9.7
		c0,0.2,0,0.3,0.3,0.3h5.4C85.9,41.6,85.8,41.4,85.8,41.2"/>
	<path class="st2" d="M114.2,41.1c-3.7-7.4-8.4-16.9-11.4-22.8c0-0.1-0.2-0.1-0.4-0.1c-0.2,0-0.4,0-0.4,0.1
		c-2.6,4.9-7.9,15.5-11.3,22.8c-0.1,0.3-0.1,0.5,0.2,0.5h5.5c0.4,0,0.5-0.1,0.6-0.4c0.3-0.8,0.8-1.9,1.2-2.9h8.1
		c0.3,0.8,0.8,2.1,1.2,3c0.1,0.2,0.2,0.3,0.4,0.3h6.2C114.4,41.6,114.4,41.6,114.2,41.1 M104.4,34h-4.6l2.3-5.1L104.4,34z"/>
	<path class="st2" d="M139.6,40.7c-1.9-3.1-3.8-6.5-4.7-7.9c2-1,3.1-3.1,3.1-6.2c0-4.1-2.7-7.6-7.9-7.6h-10.3c-0.1,0-0.3,0-0.3,0.3
		v22c0,0.3,0,0.3,0.3,0.3h5.5c0.2,0,0.3,0,0.3-0.3V35l3.8-0.1c0,0,2.4,3.8,3.6,6c0.3,0.6,0.4,0.7,0.7,0.7h5.9
		C139.9,41.6,140,41.4,139.6,40.7 M131.7,27.1c0,1.9-1,3.3-2.8,3.3l-3.3,0.1V24h3.3C130.8,24,131.7,25.3,131.7,27.1"/>
	<path class="st2" d="M161.6,23.7v-4.3c0-0.3,0-0.3-0.3-0.3h-17.6c-0.3,0-0.3,0.1-0.3,0.3v4.3c0,0.2,0,0.2,0.2,0.2l5.9-0.1v17.5
		c0,0.3,0,0.3,0.3,0.3h5.5c0.3,0,0.3,0,0.3-0.3V23.8l5.7,0.1C161.6,23.9,161.6,23.8,161.6,23.7"/>
	<path class="st0" d="M45,5.3v0.5l0.9,0V5.7c0-0.9-0.4-1.1-1.3-1.1h-2.9c-1,0-1.2,0.3-1.2,1.2v0.5c0,0.9,0.3,1.2,1.2,1.2H45v1.4
		h-3.9V8.3l-0.9,0v0.1c0,0.9,0.3,1.2,1.3,1.2h3.1c1,0,1.2-0.3,1.2-1.2V7.8c0-0.9-0.3-1.2-1.2-1.2h-3.3V5.3H45z"/>
	<path class="st3" d="M45,5.3v0.5l0.9,0V5.7c0-0.9-0.4-1.1-1.3-1.1h-2.9c-1,0-1.2,0.3-1.2,1.2v0.5c0,0.9,0.3,1.2,1.2,1.2H45v1.4
		h-3.9V8.3l-0.9,0v0.1c0,0.9,0.3,1.2,1.3,1.2h3.1c1,0,1.2-0.3,1.2-1.2V7.8c0-0.9-0.3-1.2-1.2-1.2h-3.3V5.3H45z"/>
	<path class="st0" d="M51,5.8v2.7c0,1,0.3,1.2,1.3,1.2H56c1,0,1.3-0.3,1.3-1.2V5.8c0-0.9-0.3-1.2-1.3-1.2h-3.7
		C51.3,4.5,51,4.8,51,5.8 M52,5.3h4.3v3.6H52V5.3z"/>
	<path class="st3" d="M51,5.8v2.7c0,1,0.3,1.2,1.3,1.2H56c1,0,1.3-0.3,1.3-1.2V5.8c0-0.9-0.3-1.2-1.3-1.2h-3.7
		C51.3,4.5,51,4.8,51,5.8z M52,5.3h4.3v3.6H52V5.3z"/>
	<path class="st0" d="M63.3,5.6c0.2,0.3,0.4,0.5,0.6,0.7l3.8,3.4h0.7V4.5h-0.9v3.1c0,0.3,0,0.6,0.1,1c-0.2-0.3-0.4-0.5-0.6-0.7
		l-3.8-3.4h-0.7v5.1h0.9V6.5C63.4,6.2,63.4,5.9,63.3,5.6"/>
	<path class="st3" d="M63.3,5.6c0.2,0.3,0.4,0.5,0.6,0.7l3.8,3.4h0.7V4.5h-0.9v3.1c0,0.3,0,0.6,0.1,1c-0.2-0.3-0.4-0.5-0.6-0.7
		l-3.8-3.4h-0.7v5.1h0.9V6.5C63.4,6.2,63.4,5.9,63.3,5.6z"/>
	<path class="st0" d="M73.7,5.8v2.7c0,1,0.3,1.2,1.3,1.2h3.7c1,0,1.3-0.3,1.3-1.2V5.8c0-0.9-0.3-1.2-1.3-1.2H75
		C74,4.5,73.7,4.8,73.7,5.8 M74.7,5.3H79v3.6h-4.3V5.3z"/>
	<path class="st3" d="M73.7,5.8v2.7c0,1,0.3,1.2,1.3,1.2h3.7c1,0,1.3-0.3,1.3-1.2V5.8c0-0.9-0.3-1.2-1.3-1.2H75
		C74,4.5,73.7,4.8,73.7,5.8z M74.7,5.3H79v3.6h-4.3V5.3z"/>
	<path class="st0" d="M86,5.5c0.1,0.3,0.2,0.5,0.4,0.7l2,2.6h0.3l2-2.7c0.1-0.1,0.2-0.4,0.3-0.7c0,0.3-0.1,0.5-0.1,0.7v3.5h0.9V4.5
		h-0.9l-2.3,3.3L86,4.5h-0.8v5.1H86V6.2C86,6.1,86,5.8,86,5.5"/>
	<path class="st3" d="M86,5.5c0.1,0.3,0.2,0.5,0.4,0.7l2,2.6h0.3l2-2.7c0.1-0.1,0.2-0.4,0.3-0.7c0,0.3-0.1,0.5-0.1,0.7v3.5h0.9V4.5
		h-0.9l-2.3,3.3L86,4.5h-0.8v5.1H86V6.2C86,6.1,86,5.8,86,5.5z"/>
	<path class="st0" d="M98.4,7.7l1.4-2.4l1.4,2.4H98.4z M96.4,9.7h1L98,8.5h3.5l0.7,1.2h1.1l-3-5.1h-0.9L96.4,9.7z"/>
	<path class="st3" d="M98.4,7.7l1.4-2.4l1.4,2.4H98.4z M96.4,9.7h1L98,8.5h3.5l0.7,1.2h1.1l-3-5.1h-0.9L96.4,9.7z"/>
	<path class="st0" d="M116.2,5.5c0.1,0.3,0.2,0.5,0.4,0.7l2,2.6h0.3l2-2.7c0.1-0.1,0.2-0.4,0.3-0.7c0,0.3-0.1,0.5-0.1,0.7v3.5h0.9
		V4.5h-0.9l-2.3,3.3l-2.6-3.3h-0.8v5.1h0.8V6.2C116.2,6.1,116.2,5.8,116.2,5.5"/>
	<path class="st3" d="M116.2,5.5c0.1,0.3,0.2,0.5,0.4,0.7l2,2.6h0.3l2-2.7c0.1-0.1,0.2-0.4,0.3-0.7c0,0.3-0.1,0.5-0.1,0.7v3.5h0.9
		V4.5h-0.9l-2.3,3.3l-2.6-3.3h-0.8v5.1h0.8V6.2C116.2,6.1,116.2,5.8,116.2,5.5z"/>
	<path class="st0" d="M128.6,7.7l1.4-2.4l1.4,2.4H128.6z M126.5,9.7h1l0.7-1.2h3.5l0.7,1.2h1.1l-3-5.1h-0.9L126.5,9.7z"/>
	<path class="st3" d="M128.6,7.7l1.4-2.4l1.4,2.4H128.6z M126.5,9.7h1l0.7-1.2h3.5l0.7,1.2h1.1l-3-5.1h-0.9L126.5,9.7z"/>
	<path class="st0" d="M138,9.7h1v-2h1.4l2,2h1.3l-2.3-2h0.7c0.7,0,1.1-0.3,1.1-1V5.5c0-0.7-0.3-1-1.1-1H138V9.7z M141.7,5.3
		c0.4,0,0.5,0.1,0.5,0.5v0.6c0,0.4-0.1,0.5-0.5,0.5H139V5.3H141.7z"/>
	<path class="st3" d="M138,9.7h1v-2h1.4l2,2h1.3l-2.3-2h0.7c0.7,0,1.1-0.3,1.1-1V5.5c0-0.7-0.3-1-1.1-1H138V9.7z M141.7,5.3
		c0.4,0,0.5,0.1,0.5,0.5v0.6c0,0.4-0.1,0.5-0.5,0.5H139V5.3H141.7z"/>
	<line class="st4" x1="148.9" y1="9.7" x2="148.9" y2="4.5"/>
	<rect x="148.4" y="4.5" class="st3" width="1" height="5.1"/>
	<path class="st0" d="M155.6,5.6c0.2,0.3,0.4,0.5,0.6,0.7l3.8,3.4h0.7V4.5h-0.9v3.1c0,0.3,0,0.6,0.1,1c-0.2-0.3-0.4-0.5-0.6-0.7
		l-3.8-3.4h-0.7v5.1h0.9V6.5C155.7,6.2,155.6,5.9,155.6,5.6"/>
	<path class="st3" d="M155.6,5.6c0.2,0.3,0.4,0.5,0.6,0.7l3.8,3.4h0.7V4.5h-0.9v3.1c0,0.3,0,0.6,0.1,1c-0.2-0.3-0.4-0.5-0.6-0.7
		l-3.8-3.4h-0.7v5.1h0.9V6.5C155.7,6.2,155.6,5.9,155.6,5.6z"/>
	<path class="st0" d="M110.5,6.6c0-0.1,0-0.2-0.1-0.1c-0.1,0-0.2,0.1-0.4,0.2c-0.2,0.1-0.4,0.1-0.6,0.1c-0.2,0-0.4-0.2-0.6-0.3
		c-0.2-0.1-0.4-0.3-0.7-0.3c-0.7,0-1.3,1-1.3,1.3c0,0.1,0,0.1,0.1,0.1c0.1,0,0.2-0.1,0.3-0.2c0.1-0.1,0.3-0.1,0.5-0.1
		c0.3,0,0.4,0.1,0.6,0.3c0.2,0.2,0.4,0.4,0.8,0.4C110.1,7.9,110.5,6.7,110.5,6.6"/>
	<path class="st0" d="M40.3,55.7H41l0.5-1h2.8l0.5,1h0.8l-2.3-4.2h-0.7L40.3,55.7z M41.8,54.1l1.1-2.2l1.1,2.2H41.8z"/>
	<path class="st5" d="M40.3,55.7H41l0.5-1h2.8l0.5,1h0.8l-2.3-4.2h-0.7L40.3,55.7z M41.8,54.1l1.1-2.2l1.1,2.2H41.8z"/>
	<path class="st0" d="M49.1,55.7h0.7V54H51l1.7,1.6h1L51.8,54h0.6c0.6,0,0.9-0.2,0.9-0.8v-0.9c0-0.6-0.3-0.8-0.9-0.8h-3.4V55.7z
		 M52.2,52c0.3,0,0.5,0.1,0.5,0.4v0.6c0,0.4-0.1,0.4-0.5,0.4h-2.4V52H52.2z"/>
	<path class="st5" d="M49.1,55.7h0.7V54H51l1.7,1.6h1L51.8,54h0.6c0.6,0,0.9-0.2,0.9-0.8v-0.9c0-0.6-0.3-0.8-0.9-0.8h-3.4V55.7z
		 M52.2,52c0.3,0,0.5,0.1,0.5,0.4v0.6c0,0.4-0.1,0.4-0.5,0.4h-2.4V52H52.2z"/>
	<polygon class="st0" points="57.3,55.7 61.4,55.7 61.4,55.1 58,55.1 58,53.8 60,53.8 60,53.2 58,53.2 58,52 61.3,52 61.3,51.5 
		57.3,51.5 	"/>
	<polygon class="st5" points="57.3,55.7 61.4,55.7 61.4,55.1 58,55.1 58,53.8 60,53.8 60,53.2 58,53.2 58,52 61.3,52 61.3,51.5 
		57.3,51.5 	"/>
	<path class="st0" d="M64.3,55.7H65l0.5-1h2.8l0.5,1h0.8l-2.3-4.2h-0.8L64.3,55.7z M65.8,54.1l1.1-2.2l1.1,2.2H65.8z"/>
	<path class="st5" d="M64.3,55.7H65l0.5-1h2.8l0.5,1h0.8l-2.3-4.2h-0.8L64.3,55.7z M65.8,54.1l1.1-2.2l1.1,2.2H65.8z"/>
	<path class="st0" d="M78.1,55.7h0.7V54h1.2l1.7,1.6h1L80.9,54h0.6c0.6,0,0.9-0.2,0.9-0.8v-0.9c0-0.6-0.3-0.8-0.9-0.8h-3.4V55.7z
		 M81.2,52c0.3,0,0.5,0.1,0.5,0.4v0.6c0,0.4-0.1,0.4-0.5,0.4h-2.4V52H81.2z"/>
	<path class="st5" d="M78.1,55.7h0.7V54h1.2l1.7,1.6h1L80.9,54h0.6c0.6,0,0.9-0.2,0.9-0.8v-0.9c0-0.6-0.3-0.8-0.9-0.8h-3.4V55.7z
		 M81.2,52c0.3,0,0.5,0.1,0.5,0.4v0.6c0,0.4-0.1,0.4-0.5,0.4h-2.4V52H81.2z"/>
	<path class="st0" d="M85.7,55.7h0.7l0.5-1h2.8l0.5,1h0.8l-2.3-4.2H88L85.7,55.7z M87.2,54.1l1.1-2.2l1.1,2.2H87.2z"/>
	<path class="st5" d="M85.7,55.7h0.7l0.5-1h2.8l0.5,1h0.8l-2.3-4.2H88L85.7,55.7z M87.2,54.1l1.1-2.2l1.1,2.2H87.2z"/>
	<line class="st6" x1="94.8" y1="55.7" x2="94.8" y2="51.5"/>
	<rect x="94.5" y="51.5" class="st5" width="0.7" height="4.2"/>
	<polygon class="st0" points="99.4,55.7 103.3,55.7 103.3,55.1 100.1,55.1 100.1,51.5 99.4,51.5 	"/>
	<polygon class="st5" points="99.4,55.7 103.3,55.7 103.3,55.1 100.1,55.1 100.1,51.5 99.4,51.5 	"/>
	<polygon class="st0" points="113.4,52.1 115.4,52.1 115.4,51.5 110.8,51.5 110.8,52.1 112.7,52.1 112.7,55.7 113.4,55.7 	"/>
	<polygon class="st5" points="113.4,52.1 115.4,52.1 115.4,51.5 110.8,51.5 110.8,52.1 112.7,52.1 112.7,55.7 113.4,55.7 	"/>
	<path class="st0" d="M118.6,55.7h0.7V54h1.2l1.7,1.6h1l-1.9-1.6h0.6c0.6,0,0.9-0.2,0.9-0.8v-0.9c0-0.6-0.3-0.8-0.9-0.8h-3.4V55.7z
		 M121.7,52c0.3,0,0.5,0.1,0.5,0.4v0.6c0,0.4-0.1,0.4-0.5,0.4h-2.4V52H121.7z"/>
	<path class="st5" d="M118.6,55.7h0.7V54h1.2l1.7,1.6h1l-1.9-1.6h0.6c0.6,0,0.9-0.2,0.9-0.8v-0.9c0-0.6-0.3-0.8-0.9-0.8h-3.4V55.7z
		 M121.7,52c0.3,0,0.5,0.1,0.5,0.4v0.6c0,0.4-0.1,0.4-0.5,0.4h-2.4V52H121.7z"/>
	<path class="st0" d="M126.2,55.7h0.7l0.5-1h2.8l0.5,1h0.8l-2.3-4.2h-0.8L126.2,55.7z M127.7,54.1l1.1-2.2l1.1,2.2H127.7z"/>
	<path class="st5" d="M126.2,55.7h0.7l0.5-1h2.8l0.5,1h0.8l-2.3-4.2h-0.8L126.2,55.7z M127.7,54.1l1.1-2.2l1.1,2.2H127.7z"/>
	<path class="st0" d="M134.9,55.7h0.6v-2.5c0-0.3,0-0.6,0-0.9c0.1,0.2,0.3,0.4,0.4,0.5l3.2,2.9h0.4v-4.2h-0.6v2.3c0,0.3,0,0.6,0.1,1
		c-0.2-0.2-0.3-0.4-0.5-0.5l-3.1-2.8h-0.4V55.7z"/>
	<path class="st5" d="M134.9,55.7h0.6v-2.5c0-0.3,0-0.6,0-0.9c0.1,0.2,0.3,0.4,0.4,0.5l3.2,2.9h0.4v-4.2h-0.6v2.3c0,0.3,0,0.6,0.1,1
		c-0.2-0.2-0.3-0.4-0.5-0.5l-3.1-2.8h-0.4V55.7z"/>
	<path class="st0" d="M147.4,52.1v0.4h0.6v-0.1c0-0.7-0.3-0.9-1-0.9h-2.2c-0.7,0-1,0.2-1,1v0.4c0,0.8,0.2,1,1,1h2.6v1.3h-3.1v-0.5
		l-0.7,0v0.1c0,0.8,0.2,1,1,1h2.5c0.8,0,1-0.2,1-1v-0.5c0-0.8-0.2-1-1-1h-2.6v-1.2H147.4z"/>
	<path class="st5" d="M147.4,52.1v0.4h0.6v-0.1c0-0.7-0.3-0.9-1-0.9h-2.2c-0.7,0-1,0.2-1,1v0.4c0,0.8,0.2,1,1,1h2.6v1.3h-3.1v-0.5
		l-0.7,0v0.1c0,0.8,0.2,1,1,1h2.5c0.8,0,1-0.2,1-1v-0.5c0-0.8-0.2-1-1-1h-2.6v-1.2H147.4z"/>
	<line class="st6" x1="152.6" y1="55.7" x2="152.6" y2="51.5"/>
	<rect x="152.2" y="51.5" class="st5" width="0.7" height="4.2"/>
	<polygon class="st0" points="158.8,52.1 160.7,52.1 160.7,51.5 156.1,51.5 156.1,52.1 158.1,52.1 158.1,55.7 158.8,55.7 	"/>
	<polygon class="st5" points="158.8,52.1 160.7,52.1 160.7,51.5 156.1,51.5 156.1,52.1 158.1,52.1 158.1,55.7 158.8,55.7 	"/>
</g>
</svg>
